<?xml version="1.0" encoding="UTF-8" standalone="no"?>
<!DOCTYPE svg PUBLIC "-//W3C//DTD SVG 1.1//EN"
 "http://www.w3.org/Graphics/SVG/1.1/DTD/svg11.dtd">
<!-- Generated by graphviz version 6.0.2 (0)
 -->
<!-- Pages: 1 -->
<svg width="1928pt" height="325pt"
 viewBox="0.00 0.00 1927.50 325.00" xmlns="http://www.w3.org/2000/svg" xmlns:xlink="http://www.w3.org/1999/xlink">
<g id="graph0" class="graph" transform="scale(1 1) rotate(0) translate(4 321)">
<polygon fill="white" stroke="none" points="-4,4 -4,-321 1923.5,-321 1923.5,4 -4,4"/>
<!-- 1 -->
<g id="node1" class="node">
<title>1</title>
<polygon fill="#ff0000" stroke="#ff0000" points="974,-317 919,-317 919,-276 974,-276 974,-317"/>
<text text-anchor="middle" x="946.5" y="-305" font-family="Arial" font-size="10.00" fill="#ffffff">main</text>
<text text-anchor="middle" x="946.5" y="-294" font-family="Arial" font-size="10.00" fill="#ffffff">100.00%</text>
<text text-anchor="middle" x="946.5" y="-283" font-family="Arial" font-size="10.00" fill="#ffffff">(0.00%)</text>
</g>
<!-- 2 -->
<g id="node2" class="node">
<title>2</title>
<polygon fill="#ff0000" stroke="#ff0000" points="237,-236 0,-236 0,-184 237,-184 237,-236"/>
<text text-anchor="middle" x="118.5" y="-224" font-family="Arial" font-size="10.00" fill="#ffffff">parse_tree::evaluate(parse_tree::Node*, int const*)</text>
<text text-anchor="middle" x="118.5" y="-213" font-family="Arial" font-size="10.00" fill="#ffffff">100.00%</text>
<text text-anchor="middle" x="118.5" y="-202" font-family="Arial" font-size="10.00" fill="#ffffff">(100.00%)</text>
<text text-anchor="middle" x="118.5" y="-191" font-family="Arial" font-size="10.00" fill="#ffffff">299999×</text>
</g>
<!-- 1&#45;&gt;2 -->
<g id="edge1" class="edge">
<title>1&#45;&gt;2</title>
<path fill="none" stroke="#ff0000" stroke-width="4" d="M918.7,-293.53C858.6,-289.21 712.08,-278.4 589.5,-267 459.55,-254.92 427.03,-251.92 297.5,-236 281.23,-234 264.14,-231.78 247.25,-229.5"/>
<polygon fill="#ff0000" stroke="#ff0000" stroke-width="4" points="247.72,-226.03 237.34,-228.16 246.78,-232.97 247.72,-226.03"/>
<text text-anchor="middle" x="609" y="-259" font-family="Arial" font-size="10.00" fill="#ff0000">100.00%</text>
<text text-anchor="middle" x="609" y="-248" font-family="Arial" font-size="10.00" fill="#ff0000">1×</text>
</g>
<!-- 17 -->
<g id="node3" class="node">
<title>17</title>
<polygon fill="#0d0d73" stroke="#0d0d73" points="789,-236 590,-236 590,-184 789,-184 789,-236"/>
<text text-anchor="middle" x="689.5" y="-224" font-family="Arial" font-size="10.00" fill="#ffffff">parse_tree::deleteTree(parse_tree::Node*)</text>
<text text-anchor="middle" x="689.5" y="-213" font-family="Arial" font-size="10.00" fill="#ffffff">0.00%</text>
<text text-anchor="middle" x="689.5" y="-202" font-family="Arial" font-size="10.00" fill="#ffffff">(0.00%)</text>
<text text-anchor="middle" x="689.5" y="-191" font-family="Arial" font-size="10.00" fill="#ffffff">114371×</text>
</g>
<!-- 1&#45;&gt;17 -->
<g id="edge2" class="edge">
<title>1&#45;&gt;17</title>
<path fill="none" stroke="#0d0d73" stroke-width="0.5" d="M919,-286.46C883.45,-274.77 820.07,-253.93 768.9,-237.11"/>
<polygon fill="#0d0d73" stroke="#0d0d73" stroke-width="0.5" points="769.26,-235.93 765.55,-236 768.49,-238.26 769.26,-235.93"/>
<text text-anchor="middle" x="870.5" y="-259" font-family="Arial" font-size="10.00" fill="#0d0d73">0.00%</text>
<text text-anchor="middle" x="870.5" y="-248" font-family="Arial" font-size="10.00" fill="#0d0d73">1×</text>
</g>
<!-- 18 -->
<g id="node4" class="node">
<title>18</title>
<polygon fill="#0d0d73" stroke="#0d0d73" points="1039,-236 854,-236 854,-184 1039,-184 1039,-236"/>
<text text-anchor="middle" x="946.5" y="-224" font-family="Arial" font-size="10.00" fill="#ffffff">parse_tree::prefixToTree(string, int, int)</text>
<text text-anchor="middle" x="946.5" y="-213" font-family="Arial" font-size="10.00" fill="#ffffff">0.00%</text>
<text text-anchor="middle" x="946.5" y="-202" font-family="Arial" font-size="10.00" fill="#ffffff">(0.00%)</text>
<text text-anchor="middle" x="946.5" y="-191" font-family="Arial" font-size="10.00" fill="#ffffff">299999×</text>
</g>
<!-- 1&#45;&gt;18 -->
<g id="edge3" class="edge">
<title>1&#45;&gt;18</title>
<path fill="none" stroke="#0d0d73" stroke-width="0.5" d="M946.5,-275.9C946.5,-265.21 946.5,-251.77 946.5,-239.9"/>
<polygon fill="#0d0d73" stroke="#0d0d73" stroke-width="0.5" points="947.73,-239.77 946.5,-236.27 945.28,-239.77 947.73,-239.77"/>
<text text-anchor="middle" x="960.5" y="-259" font-family="Arial" font-size="10.00" fill="#0d0d73">0.00%</text>
<text text-anchor="middle" x="960.5" y="-248" font-family="Arial" font-size="10.00" fill="#0d0d73">1×</text>
</g>
<!-- 19 -->
<g id="node5" class="node">
<title>19</title>
<polygon fill="#0d0d73" stroke="#0d0d73" points="1306.5,-236 1104.5,-236 1104.5,-184 1306.5,-184 1306.5,-236"/>
<text text-anchor="middle" x="1205.5" y="-224" font-family="Arial" font-size="10.00" fill="#ffffff">parse_tree::printInorder(parse_tree::Node*)</text>
<text text-anchor="middle" x="1205.5" y="-213" font-family="Arial" font-size="10.00" fill="#ffffff">0.00%</text>
<text text-anchor="middle" x="1205.5" y="-202" font-family="Arial" font-size="10.00" fill="#ffffff">(0.00%)</text>
<text text-anchor="middle" x="1205.5" y="-191" font-family="Arial" font-size="10.00" fill="#ffffff">300000×</text>
</g>
<!-- 1&#45;&gt;19 -->
<g id="edge4" class="edge">
<title>1&#45;&gt;19</title>
<path fill="none" stroke="#0d0d73" stroke-width="0.5" d="M974.22,-286.46C1010.04,-274.77 1073.92,-253.93 1125.48,-237.11"/>
<polygon fill="#0d0d73" stroke="#0d0d73" stroke-width="0.5" points="1125.91,-238.25 1128.86,-236 1125.15,-235.93 1125.91,-238.25"/>
<text text-anchor="middle" x="1113.5" y="-259" font-family="Arial" font-size="10.00" fill="#0d0d73">0.00%</text>
<text text-anchor="middle" x="1113.5" y="-248" font-family="Arial" font-size="10.00" fill="#0d0d73">1×</text>
</g>
<!-- 20 -->
<g id="node6" class="node">
<title>20</title>
<polygon fill="#0d0d73" stroke="#0d0d73" points="1523.5,-236 1371.5,-236 1371.5,-184 1523.5,-184 1523.5,-236"/>
<text text-anchor="middle" x="1447.5" y="-224" font-family="Arial" font-size="10.00" fill="#ffffff">parse_tree::infixToPrefix(string)</text>
<text text-anchor="middle" x="1447.5" y="-213" font-family="Arial" font-size="10.00" fill="#ffffff">0.00%</text>
<text text-anchor="middle" x="1447.5" y="-202" font-family="Arial" font-size="10.00" fill="#ffffff">(0.00%)</text>
<text text-anchor="middle" x="1447.5" y="-191" font-family="Arial" font-size="10.00" fill="#ffffff">1×</text>
</g>
<!-- 1&#45;&gt;20 -->
<g id="edge5" class="edge">
<title>1&#45;&gt;20</title>
<path fill="none" stroke="#0d0d73" stroke-width="0.5" d="M974.29,-293.1C1042,-286.93 1220.61,-268.63 1366.5,-236 1366.89,-235.91 1367.29,-235.82 1367.69,-235.73"/>
<polygon fill="#0d0d73" stroke="#0d0d73" stroke-width="0.5" points="1368.15,-236.88 1371.28,-234.89 1367.59,-234.5 1368.15,-236.88"/>
<text text-anchor="middle" x="1335.5" y="-259" font-family="Arial" font-size="10.00" fill="#0d0d73">0.00%</text>
<text text-anchor="middle" x="1335.5" y="-248" font-family="Arial" font-size="10.00" fill="#0d0d73">1×</text>
</g>
<!-- 21 -->
<g id="node7" class="node">
<title>21</title>
<polygon fill="#0d0d73" stroke="#0d0d73" points="1712,-236 1533,-236 1533,-184 1712,-184 1712,-236"/>
<text text-anchor="middle" x="1622.5" y="-224" font-family="Arial" font-size="10.00" fill="#ffffff">parse_tree::height(parse_tree::Node*)</text>
<text text-anchor="middle" x="1622.5" y="-213" font-family="Arial" font-size="10.00" fill="#ffffff">0.00%</text>
<text text-anchor="middle" x="1622.5" y="-202" font-family="Arial" font-size="10.00" fill="#ffffff">(0.00%)</text>
<text text-anchor="middle" x="1622.5" y="-191" font-family="Arial" font-size="10.00" fill="#ffffff">116790×</text>
</g>
<!-- 1&#45;&gt;21 -->
<g id="edge6" class="edge">
<title>1&#45;&gt;21</title>
<path fill="none" stroke="#0d0d73" stroke-width="0.5" d="M974.09,-294.55C1039.72,-292.07 1210.18,-284.37 1351.5,-267 1430.33,-257.31 1449.92,-253.01 1527.5,-236 1528.05,-235.88 1528.59,-235.76 1529.14,-235.64"/>
<polygon fill="#0d0d73" stroke="#0d0d73" stroke-width="0.5" points="1529.65,-236.78 1532.79,-234.82 1529.11,-234.39 1529.65,-236.78"/>
<text text-anchor="middle" x="1497.5" y="-259" font-family="Arial" font-size="10.00" fill="#0d0d73">0.00%</text>
<text text-anchor="middle" x="1497.5" y="-248" font-family="Arial" font-size="10.00" fill="#0d0d73">1×</text>
</g>
<!-- 22 -->
<g id="node8" class="node">
<title>22</title>
<polygon fill="#0d0d73" stroke="#0d0d73" points="525,-236 302,-236 302,-184 525,-184 525,-236"/>
<text text-anchor="middle" x="413.5" y="-224" font-family="Arial" font-size="10.00" fill="#ffffff">parse_tree::getAtoms(parse_tree::Node*, bool*)</text>
<text text-anchor="middle" x="413.5" y="-213" font-family="Arial" font-size="10.00" fill="#ffffff">0.00%</text>
<text text-anchor="middle" x="413.5" y="-202" font-family="Arial" font-size="10.00" fill="#ffffff">(0.00%)</text>
<text text-anchor="middle" x="413.5" y="-191" font-family="Arial" font-size="10.00" fill="#ffffff">150000×</text>
</g>
<!-- 1&#45;&gt;22 -->
<g id="edge7" class="edge">
<title>1&#45;&gt;22</title>
<path fill="none" stroke="#0d0d73" stroke-width="0.5" d="M918.9,-291.17C883.41,-285.59 819.86,-275.6 765.5,-267 686.54,-254.5 597.63,-240.36 528.92,-229.41"/>
<polygon fill="#0d0d73" stroke="#0d0d73" stroke-width="0.5" points="528.91,-228.17 525.26,-228.83 528.52,-230.59 528.91,-228.17"/>
<text text-anchor="middle" x="779.5" y="-259" font-family="Arial" font-size="10.00" fill="#0d0d73">0.00%</text>
<text text-anchor="middle" x="779.5" y="-248" font-family="Arial" font-size="10.00" fill="#0d0d73">1×</text>
</g>
<!-- 2&#45;&gt;2 -->
<g id="edge8" class="edge">
<title>2&#45;&gt;2</title>
<path fill="none" stroke="#ff0000" stroke-width="4" d="M237.22,-215.42C242.76,-214.05 246,-212.25 246,-210 246,-209.86 245.99,-209.72 245.96,-209.58"/>
<polygon fill="#ff0000" stroke="#ff0000" stroke-width="4" points="247.64,-206.51 237.22,-204.58 244.16,-212.59 247.64,-206.51"/>
<text text-anchor="middle" x="265" y="-207.5" font-family="Arial" font-size="10.00" fill="#ff0000">299998×</text>
</g>
<!-- 9 -->
<g id="node9" class="node">
<title>9</title>
<polygon fill="#0d0d73" stroke="#0d0d73" points="281,-144 192,-144 192,-92 281,-92 281,-144"/>
<text text-anchor="middle" x="236.5" y="-132" font-family="Arial" font-size="10.00" fill="#ffffff">char_index(char)</text>
<text text-anchor="middle" x="236.5" y="-121" font-family="Arial" font-size="10.00" fill="#ffffff">0.00%</text>
<text text-anchor="middle" x="236.5" y="-110" font-family="Arial" font-size="10.00" fill="#ffffff">(0.00%)</text>
<text text-anchor="middle" x="236.5" y="-99" font-family="Arial" font-size="10.00" fill="#ffffff">1049998×</text>
</g>
<!-- 2&#45;&gt;9 -->
<g id="edge9" class="edge">
<title>2&#45;&gt;9</title>
<path fill="none" stroke="#0d0d73" stroke-width="0.5" d="M151.37,-183.93C166.59,-172.32 184.71,-158.5 200.31,-146.6"/>
<polygon fill="#0d0d73" stroke="#0d0d73" stroke-width="0.5" points="201.36,-147.34 203.4,-144.25 199.87,-145.4 201.36,-147.34"/>
<text text-anchor="middle" x="211.5" y="-167" font-family="Arial" font-size="10.00" fill="#0d0d73">0.00%</text>
<text text-anchor="middle" x="211.5" y="-156" font-family="Arial" font-size="10.00" fill="#0d0d73">599999×</text>
</g>
<!-- 17&#45;&gt;17 -->
<g id="edge11" class="edge">
<title>17&#45;&gt;17</title>
<path fill="none" stroke="#0d0d73" stroke-width="0.5" d="M789.06,-215.82C794.66,-214.41 798,-212.47 798,-210 798,-208.15 796.12,-206.59 792.82,-205.34"/>
<polygon fill="#0d0d73" stroke="#0d0d73" stroke-width="0.5" points="792.77,-204.04 789.06,-204.18 792.04,-206.38 792.77,-204.04"/>
<text text-anchor="middle" x="817" y="-207.5" font-family="Arial" font-size="10.00" fill="#0d0d73">114370×</text>
</g>
<!-- 18&#45;&gt;18 -->
<g id="edge12" class="edge">
<title>18&#45;&gt;18</title>
<path fill="none" stroke="#0d0d73" stroke-width="0.5" d="M1039.06,-215.97C1044.65,-214.55 1048,-212.56 1048,-210 1048,-208.08 1046.11,-206.48 1042.81,-205.2"/>
<polygon fill="#0d0d73" stroke="#0d0d73" stroke-width="0.5" points="1042.76,-203.9 1039.06,-204.03 1042.03,-206.24 1042.76,-203.9"/>
<text text-anchor="middle" x="1067" y="-207.5" font-family="Arial" font-size="10.00" fill="#0d0d73">299998×</text>
</g>
<!-- 19&#45;&gt;19 -->
<g id="edge13" class="edge">
<title>19&#45;&gt;19</title>
<path fill="none" stroke="#0d0d73" stroke-width="0.5" d="M1306.74,-215.74C1312.24,-214.34 1315.5,-212.43 1315.5,-210 1315.5,-208.18 1313.66,-206.65 1310.43,-205.41"/>
<polygon fill="#0d0d73" stroke="#0d0d73" stroke-width="0.5" points="1310.45,-204.13 1306.74,-204.26 1309.72,-206.47 1310.45,-204.13"/>
<text text-anchor="middle" x="1334.5" y="-207.5" font-family="Arial" font-size="10.00" fill="#0d0d73">299999×</text>
</g>
<!-- 10 -->
<g id="node10" class="node">
<title>10</title>
<polygon fill="#0d0d73" stroke="#0d0d73" points="1117.5,-144 1025.5,-144 1025.5,-92 1117.5,-92 1117.5,-144"/>
<text text-anchor="middle" x="1071.5" y="-132" font-family="Arial" font-size="10.00" fill="#ffffff">precedence(char)</text>
<text text-anchor="middle" x="1071.5" y="-121" font-family="Arial" font-size="10.00" fill="#ffffff">0.00%</text>
<text text-anchor="middle" x="1071.5" y="-110" font-family="Arial" font-size="10.00" fill="#ffffff">(0.00%)</text>
<text text-anchor="middle" x="1071.5" y="-99" font-family="Arial" font-size="10.00" fill="#ffffff">1000133×</text>
</g>
<!-- 20&#45;&gt;10 -->
<g id="edge14" class="edge">
<title>20&#45;&gt;10</title>
<path fill="none" stroke="#0d0d73" stroke-width="0.5" d="M1371.31,-184.92C1369.7,-184.59 1368.09,-184.29 1366.5,-184 1295.52,-171.27 1275.08,-189.78 1204.5,-175 1165.96,-166.93 1157.61,-159.72 1121.5,-144 1121.34,-143.93 1121.19,-143.86 1121.03,-143.8"/>
<polygon fill="#0d0d73" stroke="#0d0d73" stroke-width="0.5" points="1121.42,-142.63 1117.73,-142.33 1120.43,-144.87 1121.42,-142.63"/>
<text text-anchor="middle" x="1226" y="-167" font-family="Arial" font-size="10.00" fill="#0d0d73">0.00%</text>
<text text-anchor="middle" x="1226" y="-156" font-family="Arial" font-size="10.00" fill="#0d0d73">1000133×</text>
</g>
<!-- 11 -->
<g id="node11" class="node">
<title>11</title>
<polygon fill="#0d0d73" stroke="#0d0d73" points="1224.5,-144 1126.5,-144 1126.5,-92 1224.5,-92 1224.5,-144"/>
<text text-anchor="middle" x="1175.5" y="-132" font-family="Arial" font-size="10.00" fill="#ffffff">stack::Stack::top()</text>
<text text-anchor="middle" x="1175.5" y="-121" font-family="Arial" font-size="10.00" fill="#ffffff">0.00%</text>
<text text-anchor="middle" x="1175.5" y="-110" font-family="Arial" font-size="10.00" fill="#ffffff">(0.00%)</text>
<text text-anchor="middle" x="1175.5" y="-99" font-family="Arial" font-size="10.00" fill="#ffffff">850133×</text>
</g>
<!-- 20&#45;&gt;11 -->
<g id="edge15" class="edge">
<title>20&#45;&gt;11</title>
<path fill="none" stroke="#0d0d73" stroke-width="0.5" d="M1371.27,-185.12C1369.67,-184.73 1368.08,-184.36 1366.5,-184 1339.77,-177.94 1331.95,-182.17 1305.5,-175 1269.89,-165.35 1262.31,-158.76 1228.5,-144 1228.34,-143.93 1228.17,-143.86 1228.01,-143.79"/>
<polygon fill="#0d0d73" stroke="#0d0d73" stroke-width="0.5" points="1228.24,-142.55 1224.54,-142.26 1227.25,-144.79 1228.24,-142.55"/>
<text text-anchor="middle" x="1324.5" y="-167" font-family="Arial" font-size="10.00" fill="#0d0d73">0.00%</text>
<text text-anchor="middle" x="1324.5" y="-156" font-family="Arial" font-size="10.00" fill="#0d0d73">850133×</text>
</g>
<!-- 12 -->
<g id="node12" class="node">
<title>12</title>
<polygon fill="#0d0d73" stroke="#0d0d73" points="1344,-144 1233,-144 1233,-92 1344,-92 1344,-144"/>
<text text-anchor="middle" x="1288.5" y="-132" font-family="Arial" font-size="10.00" fill="#ffffff">stack::Stack::empty()</text>
<text text-anchor="middle" x="1288.5" y="-121" font-family="Arial" font-size="10.00" fill="#ffffff">0.00%</text>
<text text-anchor="middle" x="1288.5" y="-110" font-family="Arial" font-size="10.00" fill="#ffffff">(0.00%)</text>
<text text-anchor="middle" x="1288.5" y="-99" font-family="Arial" font-size="10.00" fill="#ffffff">400109×</text>
</g>
<!-- 20&#45;&gt;12 -->
<g id="edge16" class="edge">
<title>20&#45;&gt;12</title>
<path fill="none" stroke="#0d0d73" stroke-width="0.5" d="M1397.16,-183.98C1391.5,-181.02 1385.86,-177.98 1380.5,-175 1364.27,-165.96 1346.77,-155.5 1331.44,-146.08"/>
<polygon fill="#0d0d73" stroke="#0d0d73" stroke-width="0.5" points="1332.03,-145.01 1328.41,-144.21 1330.75,-147.09 1332.03,-145.01"/>
<text text-anchor="middle" x="1399.5" y="-167" font-family="Arial" font-size="10.00" fill="#0d0d73">0.00%</text>
<text text-anchor="middle" x="1399.5" y="-156" font-family="Arial" font-size="10.00" fill="#0d0d73">400109×</text>
</g>
<!-- 14 -->
<g id="node14" class="node">
<title>14</title>
<polygon fill="#0d0d73" stroke="#0d0d73" points="1453.5,-144 1353.5,-144 1353.5,-92 1453.5,-92 1453.5,-144"/>
<text text-anchor="middle" x="1403.5" y="-132" font-family="Arial" font-size="10.00" fill="#ffffff">stack::Stack::pop()</text>
<text text-anchor="middle" x="1403.5" y="-121" font-family="Arial" font-size="10.00" fill="#ffffff">0.00%</text>
<text text-anchor="middle" x="1403.5" y="-110" font-family="Arial" font-size="10.00" fill="#ffffff">(0.00%)</text>
<text text-anchor="middle" x="1403.5" y="-99" font-family="Arial" font-size="10.00" fill="#ffffff">149999×</text>
</g>
<!-- 20&#45;&gt;14 -->
<g id="edge17" class="edge">
<title>20&#45;&gt;14</title>
<path fill="none" stroke="#0d0d73" stroke-width="0.5" d="M1435.24,-183.93C1429.71,-172.61 1423.15,-159.19 1417.43,-147.5"/>
<polygon fill="#0d0d73" stroke="#0d0d73" stroke-width="0.5" points="1418.48,-146.85 1415.84,-144.25 1416.28,-147.93 1418.48,-146.85"/>
<text text-anchor="middle" x="1450.5" y="-167" font-family="Arial" font-size="10.00" fill="#0d0d73">0.00%</text>
<text text-anchor="middle" x="1450.5" y="-156" font-family="Arial" font-size="10.00" fill="#0d0d73">149999×</text>
</g>
<!-- 15 -->
<g id="node15" class="node">
<title>15</title>
<polygon fill="#0d0d73" stroke="#0d0d73" points="1586.5,-144 1462.5,-144 1462.5,-92 1586.5,-92 1586.5,-144"/>
<text text-anchor="middle" x="1524.5" y="-132" font-family="Arial" font-size="10.00" fill="#ffffff">stack::Stack::push(char)</text>
<text text-anchor="middle" x="1524.5" y="-121" font-family="Arial" font-size="10.00" fill="#ffffff">0.00%</text>
<text text-anchor="middle" x="1524.5" y="-110" font-family="Arial" font-size="10.00" fill="#ffffff">(0.00%)</text>
<text text-anchor="middle" x="1524.5" y="-99" font-family="Arial" font-size="10.00" fill="#ffffff">149999×</text>
</g>
<!-- 20&#45;&gt;15 -->
<g id="edge18" class="edge">
<title>20&#45;&gt;15</title>
<path fill="none" stroke="#0d0d73" stroke-width="0.5" d="M1468.95,-183.93C1478.71,-172.52 1490.31,-158.96 1500.38,-147.2"/>
<polygon fill="#0d0d73" stroke="#0d0d73" stroke-width="0.5" points="1501.55,-147.7 1502.9,-144.25 1499.69,-146.11 1501.55,-147.7"/>
<text text-anchor="middle" x="1514.5" y="-167" font-family="Arial" font-size="10.00" fill="#0d0d73">0.00%</text>
<text text-anchor="middle" x="1514.5" y="-156" font-family="Arial" font-size="10.00" fill="#0d0d73">149999×</text>
</g>
<!-- 16 -->
<g id="node16" class="node">
<title>16</title>
<polygon fill="#0d0d73" stroke="#0d0d73" points="1675,-144 1596,-144 1596,-92 1675,-92 1675,-144"/>
<text text-anchor="middle" x="1635.5" y="-132" font-family="Arial" font-size="10.00" fill="#ffffff">reverse(string)</text>
<text text-anchor="middle" x="1635.5" y="-121" font-family="Arial" font-size="10.00" fill="#ffffff">0.00%</text>
<text text-anchor="middle" x="1635.5" y="-110" font-family="Arial" font-size="10.00" fill="#ffffff">(0.00%)</text>
<text text-anchor="middle" x="1635.5" y="-99" font-family="Arial" font-size="10.00" fill="#ffffff">2×</text>
</g>
<!-- 20&#45;&gt;16 -->
<g id="edge19" class="edge">
<title>20&#45;&gt;16</title>
<path fill="none" stroke="#0d0d73" stroke-width="0.5" d="M1515.18,-183.98C1522.1,-181.08 1528.98,-178.07 1535.5,-175 1554.58,-166.03 1574.99,-154.89 1592.36,-144.92"/>
<polygon fill="#0d0d73" stroke="#0d0d73" stroke-width="0.5" points="1593.38,-145.75 1595.8,-142.94 1592.15,-143.63 1593.38,-145.75"/>
<text text-anchor="middle" x="1591.5" y="-167" font-family="Arial" font-size="10.00" fill="#0d0d73">0.00%</text>
<text text-anchor="middle" x="1591.5" y="-156" font-family="Arial" font-size="10.00" fill="#0d0d73">2×</text>
</g>
<!-- 23 -->
<g id="node17" class="node">
<title>23</title>
<polygon fill="#0d0d73" stroke="#0d0d73" points="1794.5,-144 1684.5,-144 1684.5,-92 1794.5,-92 1794.5,-144"/>
<text text-anchor="middle" x="1739.5" y="-132" font-family="Arial" font-size="10.00" fill="#ffffff">stack::Stack::Stack()</text>
<text text-anchor="middle" x="1739.5" y="-121" font-family="Arial" font-size="10.00" fill="#ffffff">0.00%</text>
<text text-anchor="middle" x="1739.5" y="-110" font-family="Arial" font-size="10.00" fill="#ffffff">(0.00%)</text>
<text text-anchor="middle" x="1739.5" y="-99" font-family="Arial" font-size="10.00" fill="#ffffff">1×</text>
</g>
<!-- 20&#45;&gt;23 -->
<g id="edge20" class="edge">
<title>20&#45;&gt;23</title>
<path fill="none" stroke="#0d0d73" stroke-width="0.5" d="M1523.71,-185.05C1525.32,-184.68 1526.92,-184.33 1528.5,-184 1563.09,-176.76 1573.33,-183.99 1607.5,-175 1634.35,-167.93 1662.85,-156.4 1686.48,-145.63"/>
<polygon fill="#0d0d73" stroke="#0d0d73" stroke-width="0.5" points="1687.25,-146.62 1689.92,-144.04 1686.23,-144.39 1687.25,-146.62"/>
<text text-anchor="middle" x="1681.5" y="-167" font-family="Arial" font-size="10.00" fill="#0d0d73">0.00%</text>
<text text-anchor="middle" x="1681.5" y="-156" font-family="Arial" font-size="10.00" fill="#0d0d73">1×</text>
</g>
<!-- 24 -->
<g id="node18" class="node">
<title>24</title>
<polygon fill="#0d0d73" stroke="#0d0d73" points="1919.5,-144 1803.5,-144 1803.5,-92 1919.5,-92 1919.5,-144"/>
<text text-anchor="middle" x="1861.5" y="-132" font-family="Arial" font-size="10.00" fill="#ffffff">stack::Stack::~Stack()</text>
<text text-anchor="middle" x="1861.5" y="-121" font-family="Arial" font-size="10.00" fill="#ffffff">0.00%</text>
<text text-anchor="middle" x="1861.5" y="-110" font-family="Arial" font-size="10.00" fill="#ffffff">(0.00%)</text>
<text text-anchor="middle" x="1861.5" y="-99" font-family="Arial" font-size="10.00" fill="#ffffff">1×</text>
</g>
<!-- 20&#45;&gt;24 -->
<g id="edge21" class="edge">
<title>20&#45;&gt;24</title>
<path fill="none" stroke="#0d0d73" stroke-width="0.5" d="M1523.68,-184.91C1525.3,-184.59 1526.91,-184.28 1528.5,-184 1602.55,-170.81 1623.42,-188.03 1697.5,-175 1744.16,-166.79 1754.82,-159.76 1799.5,-144 1799.66,-143.94 1799.83,-143.88 1799.99,-143.83"/>
<polygon fill="#0d0d73" stroke="#0d0d73" stroke-width="0.5" points="1800.59,-144.91 1803.48,-142.58 1799.77,-142.61 1800.59,-144.91"/>
<text text-anchor="middle" x="1787.5" y="-167" font-family="Arial" font-size="10.00" fill="#0d0d73">0.00%</text>
<text text-anchor="middle" x="1787.5" y="-156" font-family="Arial" font-size="10.00" fill="#0d0d73">1×</text>
</g>
<!-- 21&#45;&gt;21 -->
<g id="edge22" class="edge">
<title>21&#45;&gt;21</title>
<path fill="none" stroke="#0d0d73" stroke-width="0.5" d="M1712.03,-216.05C1717.63,-214.62 1721,-212.61 1721,-210 1721,-208.05 1719.1,-206.42 1715.8,-205.13"/>
<polygon fill="#0d0d73" stroke="#0d0d73" stroke-width="0.5" points="1715.74,-203.83 1712.03,-203.95 1715.01,-206.17 1715.74,-203.83"/>
<text text-anchor="middle" x="1740" y="-207.5" font-family="Arial" font-size="10.00" fill="#0d0d73">116789×</text>
</g>
<!-- 22&#45;&gt;22 -->
<g id="edge24" class="edge">
<title>22&#45;&gt;22</title>
<path fill="none" stroke="#0d0d73" stroke-width="0.5" d="M525.07,-215.58C530.69,-214.2 534,-212.34 534,-210 534,-208.25 532.14,-206.76 528.83,-205.54"/>
<polygon fill="#0d0d73" stroke="#0d0d73" stroke-width="0.5" points="528.77,-204.25 525.07,-204.42 528.07,-206.59 528.77,-204.25"/>
<text text-anchor="middle" x="553" y="-207.5" font-family="Arial" font-size="10.00" fill="#0d0d73">149999×</text>
</g>
<!-- 22&#45;&gt;9 -->
<g id="edge23" class="edge">
<title>22&#45;&gt;9</title>
<path fill="none" stroke="#0d0d73" stroke-width="0.5" d="M364.2,-183.93C339.23,-171.24 309.05,-155.89 284.31,-143.31"/>
<polygon fill="#0d0d73" stroke="#0d0d73" stroke-width="0.5" points="284.68,-142.12 281.01,-141.63 283.57,-144.31 284.68,-142.12"/>
<text text-anchor="middle" x="365.5" y="-167" font-family="Arial" font-size="10.00" fill="#0d0d73">0.00%</text>
<text text-anchor="middle" x="365.5" y="-156" font-family="Arial" font-size="10.00" fill="#0d0d73">449999×</text>
</g>
<!-- 13 -->
<g id="node13" class="node">
<title>13</title>
<polygon fill="#0d0d73" stroke="#0d0d73" points="1581,-52 1468,-52 1468,0 1581,0 1581,-52"/>
<text text-anchor="middle" x="1524.5" y="-40" font-family="Arial" font-size="10.00" fill="#ffffff">list::Node::Node(char)</text>
<text text-anchor="middle" x="1524.5" y="-29" font-family="Arial" font-size="10.00" fill="#ffffff">0.00%</text>
<text text-anchor="middle" x="1524.5" y="-18" font-family="Arial" font-size="10.00" fill="#ffffff">(0.00%)</text>
<text text-anchor="middle" x="1524.5" y="-7" font-family="Arial" font-size="10.00" fill="#ffffff">149999×</text>
</g>
<!-- 15&#45;&gt;13 -->
<g id="edge10" class="edge">
<title>15&#45;&gt;13</title>
<path fill="none" stroke="#0d0d73" stroke-width="0.5" d="M1524.5,-91.93C1524.5,-80.71 1524.5,-67.42 1524.5,-55.8"/>
<polygon fill="#0d0d73" stroke="#0d0d73" stroke-width="0.5" points="1525.73,-55.75 1524.5,-52.25 1523.28,-55.75 1525.73,-55.75"/>
<text text-anchor="middle" x="1543.5" y="-75" font-family="Arial" font-size="10.00" fill="#0d0d73">0.00%</text>
<text text-anchor="middle" x="1543.5" y="-64" font-family="Arial" font-size="10.00" fill="#0d0d73">149999×</text>
</g>
</g>
</svg>
