<?xml version="1.0" encoding="UTF-8" standalone="no"?>
<!DOCTYPE svg PUBLIC "-//W3C//DTD SVG 1.1//EN"
 "http://www.w3.org/Graphics/SVG/1.1/DTD/svg11.dtd">
<!-- Generated by graphviz version 6.0.2 (0)
 -->
<!-- Pages: 1 -->
<svg width="2110pt" height="325pt"
 viewBox="0.00 0.00 2109.50 325.00" xmlns="http://www.w3.org/2000/svg" xmlns:xlink="http://www.w3.org/1999/xlink">
<g id="graph0" class="graph" transform="scale(1 1) rotate(0) translate(4 321)">
<polygon fill="white" stroke="none" points="-4,4 -4,-321 2105.5,-321 2105.5,4 -4,4"/>
<!-- 1 -->
<g id="node1" class="node">
<title>1</title>
<polygon fill="#ff0000" stroke="#ff0000" points="1157.5,-317 1102.5,-317 1102.5,-276 1157.5,-276 1157.5,-317"/>
<text text-anchor="middle" x="1130" y="-305" font-family="Arial" font-size="10.00" fill="#ffffff">main</text>
<text text-anchor="middle" x="1130" y="-294" font-family="Arial" font-size="10.00" fill="#ffffff">100.00%</text>
<text text-anchor="middle" x="1130" y="-283" font-family="Arial" font-size="10.00" fill="#ffffff">(0.00%)</text>
</g>
<!-- 3 -->
<g id="node2" class="node">
<title>3</title>
<polygon fill="#ff0000" stroke="#ff0000" points="515,-236 363,-236 363,-184 515,-184 515,-236"/>
<text text-anchor="middle" x="439" y="-224" font-family="Arial" font-size="10.00" fill="#ffffff">parse_tree::infixToPrefix(string)</text>
<text text-anchor="middle" x="439" y="-213" font-family="Arial" font-size="10.00" fill="#ffffff">100.00%</text>
<text text-anchor="middle" x="439" y="-202" font-family="Arial" font-size="10.00" fill="#ffffff">(0.00%)</text>
<text text-anchor="middle" x="439" y="-191" font-family="Arial" font-size="10.00" fill="#ffffff">1×</text>
</g>
<!-- 1&#45;&gt;3 -->
<g id="edge1" class="edge">
<title>1&#45;&gt;3</title>
<path fill="none" stroke="#ff0000" stroke-width="4" d="M1102.31,-294.97C1016.77,-292.89 749.24,-282.97 525.18,-237.02"/>
<polygon fill="#ff0000" stroke="#ff0000" stroke-width="4" points="525.72,-233.56 515.21,-234.95 524.29,-240.41 525.72,-233.56"/>
<text text-anchor="middle" x="722.5" y="-259" font-family="Arial" font-size="10.00" fill="#ff0000">100.00%</text>
<text text-anchor="middle" x="722.5" y="-248" font-family="Arial" font-size="10.00" fill="#ff0000">1×</text>
</g>
<!-- 17 -->
<g id="node3" class="node">
<title>17</title>
<polygon fill="#0d0d73" stroke="#0d0d73" points="723.5,-236 524.5,-236 524.5,-184 723.5,-184 723.5,-236"/>
<text text-anchor="middle" x="624" y="-224" font-family="Arial" font-size="10.00" fill="#ffffff">parse_tree::deleteTree(parse_tree::Node*)</text>
<text text-anchor="middle" x="624" y="-213" font-family="Arial" font-size="10.00" fill="#ffffff">0.00%</text>
<text text-anchor="middle" x="624" y="-202" font-family="Arial" font-size="10.00" fill="#ffffff">(0.00%)</text>
<text text-anchor="middle" x="624" y="-191" font-family="Arial" font-size="10.00" fill="#ffffff">38229×</text>
</g>
<!-- 1&#45;&gt;17 -->
<g id="edge2" class="edge">
<title>1&#45;&gt;17</title>
<path fill="none" stroke="#0d0d73" stroke-width="0.5" d="M1102.39,-291.21C1067.21,-285.71 1004.56,-275.85 951,-267 876.2,-254.64 791.87,-240.19 727.59,-229.06"/>
<polygon fill="#0d0d73" stroke="#0d0d73" stroke-width="0.5" points="727.43,-227.79 723.77,-228.4 727.01,-230.2 727.43,-227.79"/>
<text text-anchor="middle" x="965" y="-259" font-family="Arial" font-size="10.00" fill="#0d0d73">0.00%</text>
<text text-anchor="middle" x="965" y="-248" font-family="Arial" font-size="10.00" fill="#0d0d73">1×</text>
</g>
<!-- 18 -->
<g id="node4" class="node">
<title>18</title>
<polygon fill="#0d0d73" stroke="#0d0d73" points="968.5,-236 783.5,-236 783.5,-184 968.5,-184 968.5,-236"/>
<text text-anchor="middle" x="876" y="-224" font-family="Arial" font-size="10.00" fill="#ffffff">parse_tree::prefixToTree(string, int, int)</text>
<text text-anchor="middle" x="876" y="-213" font-family="Arial" font-size="10.00" fill="#ffffff">0.00%</text>
<text text-anchor="middle" x="876" y="-202" font-family="Arial" font-size="10.00" fill="#ffffff">(0.00%)</text>
<text text-anchor="middle" x="876" y="-191" font-family="Arial" font-size="10.00" fill="#ffffff">99999×</text>
</g>
<!-- 1&#45;&gt;18 -->
<g id="edge3" class="edge">
<title>1&#45;&gt;18</title>
<path fill="none" stroke="#0d0d73" stroke-width="0.5" d="M1102.33,-286.3C1067.24,-274.62 1005.24,-253.99 954.99,-237.28"/>
<polygon fill="#0d0d73" stroke="#0d0d73" stroke-width="0.5" points="955.1,-236.03 951.4,-236.08 954.33,-238.35 955.1,-236.03"/>
<text text-anchor="middle" x="1055" y="-259" font-family="Arial" font-size="10.00" fill="#0d0d73">0.00%</text>
<text text-anchor="middle" x="1055" y="-248" font-family="Arial" font-size="10.00" fill="#0d0d73">1×</text>
</g>
<!-- 19 -->
<g id="node5" class="node">
<title>19</title>
<polygon fill="#0d0d73" stroke="#0d0d73" points="1231,-236 1029,-236 1029,-184 1231,-184 1231,-236"/>
<text text-anchor="middle" x="1130" y="-224" font-family="Arial" font-size="10.00" fill="#ffffff">parse_tree::printInorder(parse_tree::Node*)</text>
<text text-anchor="middle" x="1130" y="-213" font-family="Arial" font-size="10.00" fill="#ffffff">0.00%</text>
<text text-anchor="middle" x="1130" y="-202" font-family="Arial" font-size="10.00" fill="#ffffff">(0.00%)</text>
<text text-anchor="middle" x="1130" y="-191" font-family="Arial" font-size="10.00" fill="#ffffff">100000×</text>
</g>
<!-- 1&#45;&gt;19 -->
<g id="edge4" class="edge">
<title>1&#45;&gt;19</title>
<path fill="none" stroke="#0d0d73" stroke-width="0.5" d="M1130,-275.9C1130,-265.21 1130,-251.77 1130,-239.9"/>
<polygon fill="#0d0d73" stroke="#0d0d73" stroke-width="0.5" points="1131.23,-239.77 1130,-236.27 1128.78,-239.77 1131.23,-239.77"/>
<text text-anchor="middle" x="1144" y="-259" font-family="Arial" font-size="10.00" fill="#0d0d73">0.00%</text>
<text text-anchor="middle" x="1144" y="-248" font-family="Arial" font-size="10.00" fill="#0d0d73">1×</text>
</g>
<!-- 20 -->
<g id="node6" class="node">
<title>20</title>
<polygon fill="#0d0d73" stroke="#0d0d73" points="1470.5,-236 1291.5,-236 1291.5,-184 1470.5,-184 1470.5,-236"/>
<text text-anchor="middle" x="1381" y="-224" font-family="Arial" font-size="10.00" fill="#ffffff">parse_tree::height(parse_tree::Node*)</text>
<text text-anchor="middle" x="1381" y="-213" font-family="Arial" font-size="10.00" fill="#ffffff">0.00%</text>
<text text-anchor="middle" x="1381" y="-202" font-family="Arial" font-size="10.00" fill="#ffffff">(0.00%)</text>
<text text-anchor="middle" x="1381" y="-191" font-family="Arial" font-size="10.00" fill="#ffffff">38913×</text>
</g>
<!-- 1&#45;&gt;20 -->
<g id="edge5" class="edge">
<title>1&#45;&gt;20</title>
<path fill="none" stroke="#0d0d73" stroke-width="0.5" d="M1157.82,-286.13C1192.6,-274.43 1253.56,-253.9 1302.99,-237.26"/>
<polygon fill="#0d0d73" stroke="#0d0d73" stroke-width="0.5" points="1303.61,-238.35 1306.53,-236.07 1302.83,-236.03 1303.61,-238.35"/>
<text text-anchor="middle" x="1292" y="-259" font-family="Arial" font-size="10.00" fill="#0d0d73">0.00%</text>
<text text-anchor="middle" x="1292" y="-248" font-family="Arial" font-size="10.00" fill="#0d0d73">1×</text>
</g>
<!-- 21 -->
<g id="node7" class="node">
<title>21</title>
<polygon fill="#0d0d73" stroke="#0d0d73" points="1767.5,-236 1530.5,-236 1530.5,-184 1767.5,-184 1767.5,-236"/>
<text text-anchor="middle" x="1649" y="-224" font-family="Arial" font-size="10.00" fill="#ffffff">parse_tree::evaluate(parse_tree::Node*, int const*)</text>
<text text-anchor="middle" x="1649" y="-213" font-family="Arial" font-size="10.00" fill="#ffffff">0.00%</text>
<text text-anchor="middle" x="1649" y="-202" font-family="Arial" font-size="10.00" fill="#ffffff">(0.00%)</text>
<text text-anchor="middle" x="1649" y="-191" font-family="Arial" font-size="10.00" fill="#ffffff">99999×</text>
</g>
<!-- 1&#45;&gt;21 -->
<g id="edge6" class="edge">
<title>1&#45;&gt;21</title>
<path fill="none" stroke="#0d0d73" stroke-width="0.5" d="M1157.93,-291.81C1222.75,-283.12 1388.39,-260.31 1526,-236 1526.17,-235.97 1526.35,-235.94 1526.52,-235.91"/>
<polygon fill="#0d0d73" stroke="#0d0d73" stroke-width="0.5" points="1526.98,-237.07 1530.21,-235.25 1526.55,-234.66 1526.98,-237.07"/>
<text text-anchor="middle" x="1487" y="-259" font-family="Arial" font-size="10.00" fill="#0d0d73">0.00%</text>
<text text-anchor="middle" x="1487" y="-248" font-family="Arial" font-size="10.00" fill="#0d0d73">1×</text>
</g>
<!-- 22 -->
<g id="node8" class="node">
<title>22</title>
<polygon fill="#0d0d73" stroke="#0d0d73" points="2050.5,-236 1827.5,-236 1827.5,-184 2050.5,-184 2050.5,-236"/>
<text text-anchor="middle" x="1939" y="-224" font-family="Arial" font-size="10.00" fill="#ffffff">parse_tree::getAtoms(parse_tree::Node*, bool*)</text>
<text text-anchor="middle" x="1939" y="-213" font-family="Arial" font-size="10.00" fill="#ffffff">0.00%</text>
<text text-anchor="middle" x="1939" y="-202" font-family="Arial" font-size="10.00" fill="#ffffff">(0.00%)</text>
<text text-anchor="middle" x="1939" y="-191" font-family="Arial" font-size="10.00" fill="#ffffff">50000×</text>
</g>
<!-- 1&#45;&gt;22 -->
<g id="edge7" class="edge">
<title>1&#45;&gt;22</title>
<path fill="none" stroke="#0d0d73" stroke-width="0.5" d="M1157.56,-294.5C1251.3,-290.79 1566.17,-275.98 1823,-236 1823.27,-235.96 1823.53,-235.92 1823.8,-235.87"/>
<polygon fill="#0d0d73" stroke="#0d0d73" stroke-width="0.5" points="1824.04,-237.08 1827.3,-235.32 1823.65,-234.66 1824.04,-237.08"/>
<text text-anchor="middle" x="1763" y="-259" font-family="Arial" font-size="10.00" fill="#0d0d73">0.00%</text>
<text text-anchor="middle" x="1763" y="-248" font-family="Arial" font-size="10.00" fill="#0d0d73">1×</text>
</g>
<!-- 2 -->
<g id="node9" class="node">
<title>2</title>
<polygon fill="#ff0000" stroke="#ff0000" points="98,-144 0,-144 0,-92 98,-92 98,-144"/>
<text text-anchor="middle" x="49" y="-132" font-family="Arial" font-size="10.00" fill="#ffffff">stack::Stack::top()</text>
<text text-anchor="middle" x="49" y="-121" font-family="Arial" font-size="10.00" fill="#ffffff">100.00%</text>
<text text-anchor="middle" x="49" y="-110" font-family="Arial" font-size="10.00" fill="#ffffff">(100.00%)</text>
<text text-anchor="middle" x="49" y="-99" font-family="Arial" font-size="10.00" fill="#ffffff">283353×</text>
</g>
<!-- 3&#45;&gt;2 -->
<g id="edge8" class="edge">
<title>3&#45;&gt;2</title>
<path fill="none" stroke="#ff0000" stroke-width="4" d="M362.86,-203.3C311.96,-198.4 243.8,-189.72 185,-175 149.93,-166.22 139.88,-160.33 107.32,-146.27"/>
<polygon fill="#ff0000" stroke="#ff0000" stroke-width="4" points="108.59,-143.01 98.02,-142.3 105.84,-149.45 108.59,-143.01"/>
<text text-anchor="middle" x="204.5" y="-167" font-family="Arial" font-size="10.00" fill="#ff0000">100.00%</text>
<text text-anchor="middle" x="204.5" y="-156" font-family="Arial" font-size="10.00" fill="#ff0000">283353×</text>
</g>
<!-- 11 -->
<g id="node10" class="node">
<title>11</title>
<polygon fill="#0d0d73" stroke="#0d0d73" points="199,-144 107,-144 107,-92 199,-92 199,-144"/>
<text text-anchor="middle" x="153" y="-132" font-family="Arial" font-size="10.00" fill="#ffffff">precedence(char)</text>
<text text-anchor="middle" x="153" y="-121" font-family="Arial" font-size="10.00" fill="#ffffff">0.00%</text>
<text text-anchor="middle" x="153" y="-110" font-family="Arial" font-size="10.00" fill="#ffffff">(0.00%)</text>
<text text-anchor="middle" x="153" y="-99" font-family="Arial" font-size="10.00" fill="#ffffff">333353×</text>
</g>
<!-- 3&#45;&gt;11 -->
<g id="edge9" class="edge">
<title>3&#45;&gt;11</title>
<path fill="none" stroke="#0d0d73" stroke-width="0.5" d="M362.72,-194.7C337.45,-189.32 309.32,-182.63 284,-175 247.49,-163.99 238.93,-159.3 204,-144 203.49,-143.78 202.98,-143.55 202.47,-143.33"/>
<polygon fill="#0d0d73" stroke="#0d0d73" stroke-width="0.5" points="202.76,-142.11 199.06,-141.8 201.76,-144.35 202.76,-142.11"/>
<text text-anchor="middle" x="303" y="-167" font-family="Arial" font-size="10.00" fill="#0d0d73">0.00%</text>
<text text-anchor="middle" x="303" y="-156" font-family="Arial" font-size="10.00" fill="#0d0d73">333353×</text>
</g>
<!-- 12 -->
<g id="node11" class="node">
<title>12</title>
<polygon fill="#0d0d73" stroke="#0d0d73" points="319.5,-144 208.5,-144 208.5,-92 319.5,-92 319.5,-144"/>
<text text-anchor="middle" x="264" y="-132" font-family="Arial" font-size="10.00" fill="#ffffff">stack::Stack::empty()</text>
<text text-anchor="middle" x="264" y="-121" font-family="Arial" font-size="10.00" fill="#ffffff">0.00%</text>
<text text-anchor="middle" x="264" y="-110" font-family="Arial" font-size="10.00" fill="#ffffff">(0.00%)</text>
<text text-anchor="middle" x="264" y="-99" font-family="Arial" font-size="10.00" fill="#ffffff">133408×</text>
</g>
<!-- 3&#45;&gt;12 -->
<g id="edge10" class="edge">
<title>3&#45;&gt;12</title>
<path fill="none" stroke="#0d0d73" stroke-width="0.5" d="M380.27,-183.82C374.06,-180.94 367.87,-177.96 362,-175 344.45,-166.14 325.61,-155.63 309.18,-146.11"/>
<polygon fill="#0d0d73" stroke="#0d0d73" stroke-width="0.5" points="309.57,-144.92 305.93,-144.23 308.34,-147.04 309.57,-144.92"/>
<text text-anchor="middle" x="381" y="-167" font-family="Arial" font-size="10.00" fill="#0d0d73">0.00%</text>
<text text-anchor="middle" x="381" y="-156" font-family="Arial" font-size="10.00" fill="#0d0d73">133408×</text>
</g>
<!-- 14 -->
<g id="node12" class="node">
<title>14</title>
<polygon fill="#0d0d73" stroke="#0d0d73" points="429,-144 329,-144 329,-92 429,-92 429,-144"/>
<text text-anchor="middle" x="379" y="-132" font-family="Arial" font-size="10.00" fill="#ffffff">stack::Stack::pop()</text>
<text text-anchor="middle" x="379" y="-121" font-family="Arial" font-size="10.00" fill="#ffffff">0.00%</text>
<text text-anchor="middle" x="379" y="-110" font-family="Arial" font-size="10.00" fill="#ffffff">(0.00%)</text>
<text text-anchor="middle" x="379" y="-99" font-family="Arial" font-size="10.00" fill="#ffffff">49999×</text>
</g>
<!-- 3&#45;&gt;14 -->
<g id="edge11" class="edge">
<title>3&#45;&gt;14</title>
<path fill="none" stroke="#0d0d73" stroke-width="0.5" d="M422.29,-183.93C414.68,-172.52 405.64,-158.96 397.8,-147.2"/>
<polygon fill="#0d0d73" stroke="#0d0d73" stroke-width="0.5" points="398.79,-146.48 395.83,-144.25 396.75,-147.84 398.79,-146.48"/>
<text text-anchor="middle" x="433.5" y="-167" font-family="Arial" font-size="10.00" fill="#0d0d73">0.00%</text>
<text text-anchor="middle" x="433.5" y="-156" font-family="Arial" font-size="10.00" fill="#0d0d73">49999×</text>
</g>
<!-- 15 -->
<g id="node13" class="node">
<title>15</title>
<polygon fill="#0d0d73" stroke="#0d0d73" points="562,-144 438,-144 438,-92 562,-92 562,-144"/>
<text text-anchor="middle" x="500" y="-132" font-family="Arial" font-size="10.00" fill="#ffffff">stack::Stack::push(char)</text>
<text text-anchor="middle" x="500" y="-121" font-family="Arial" font-size="10.00" fill="#ffffff">0.00%</text>
<text text-anchor="middle" x="500" y="-110" font-family="Arial" font-size="10.00" fill="#ffffff">(0.00%)</text>
<text text-anchor="middle" x="500" y="-99" font-family="Arial" font-size="10.00" fill="#ffffff">49999×</text>
</g>
<!-- 3&#45;&gt;15 -->
<g id="edge12" class="edge">
<title>3&#45;&gt;15</title>
<path fill="none" stroke="#0d0d73" stroke-width="0.5" d="M455.99,-183.93C463.73,-172.52 472.91,-158.96 480.89,-147.2"/>
<polygon fill="#0d0d73" stroke="#0d0d73" stroke-width="0.5" points="481.94,-147.83 482.89,-144.25 479.91,-146.46 481.94,-147.83"/>
<text text-anchor="middle" x="493.5" y="-167" font-family="Arial" font-size="10.00" fill="#0d0d73">0.00%</text>
<text text-anchor="middle" x="493.5" y="-156" font-family="Arial" font-size="10.00" fill="#0d0d73">49999×</text>
</g>
<!-- 16 -->
<g id="node14" class="node">
<title>16</title>
<polygon fill="#0d0d73" stroke="#0d0d73" points="650.5,-144 571.5,-144 571.5,-92 650.5,-92 650.5,-144"/>
<text text-anchor="middle" x="611" y="-132" font-family="Arial" font-size="10.00" fill="#ffffff">reverse(string)</text>
<text text-anchor="middle" x="611" y="-121" font-family="Arial" font-size="10.00" fill="#ffffff">0.00%</text>
<text text-anchor="middle" x="611" y="-110" font-family="Arial" font-size="10.00" fill="#ffffff">(0.00%)</text>
<text text-anchor="middle" x="611" y="-99" font-family="Arial" font-size="10.00" fill="#ffffff">2×</text>
</g>
<!-- 3&#45;&gt;16 -->
<g id="edge13" class="edge">
<title>3&#45;&gt;16</title>
<path fill="none" stroke="#0d0d73" stroke-width="0.5" d="M494.23,-183.84C500.26,-180.93 506.28,-177.94 512,-175 530.6,-165.43 550.76,-154.19 568,-144.3"/>
<polygon fill="#0d0d73" stroke="#0d0d73" stroke-width="0.5" points="568.99,-145.15 571.41,-142.34 567.77,-143.02 568.99,-145.15"/>
<text text-anchor="middle" x="565" y="-167" font-family="Arial" font-size="10.00" fill="#0d0d73">0.00%</text>
<text text-anchor="middle" x="565" y="-156" font-family="Arial" font-size="10.00" fill="#0d0d73">2×</text>
</g>
<!-- 23 -->
<g id="node15" class="node">
<title>23</title>
<polygon fill="#0d0d73" stroke="#0d0d73" points="770,-144 660,-144 660,-92 770,-92 770,-144"/>
<text text-anchor="middle" x="715" y="-132" font-family="Arial" font-size="10.00" fill="#ffffff">stack::Stack::Stack()</text>
<text text-anchor="middle" x="715" y="-121" font-family="Arial" font-size="10.00" fill="#ffffff">0.00%</text>
<text text-anchor="middle" x="715" y="-110" font-family="Arial" font-size="10.00" fill="#ffffff">(0.00%)</text>
<text text-anchor="middle" x="715" y="-99" font-family="Arial" font-size="10.00" fill="#ffffff">1×</text>
</g>
<!-- 3&#45;&gt;23 -->
<g id="edge14" class="edge">
<title>3&#45;&gt;23</title>
<path fill="none" stroke="#0d0d73" stroke-width="0.5" d="M515.23,-185.12C516.83,-184.73 518.42,-184.36 520,-184 546.73,-177.94 554.6,-182.34 581,-175 607.74,-167.57 636.26,-156.17 660.09,-145.59"/>
<polygon fill="#0d0d73" stroke="#0d0d73" stroke-width="0.5" points="660.87,-146.59 663.57,-144.04 659.88,-144.35 660.87,-146.59"/>
<text text-anchor="middle" x="655" y="-167" font-family="Arial" font-size="10.00" fill="#0d0d73">0.00%</text>
<text text-anchor="middle" x="655" y="-156" font-family="Arial" font-size="10.00" fill="#0d0d73">1×</text>
</g>
<!-- 24 -->
<g id="node16" class="node">
<title>24</title>
<polygon fill="#0d0d73" stroke="#0d0d73" points="895,-144 779,-144 779,-92 895,-92 895,-144"/>
<text text-anchor="middle" x="837" y="-132" font-family="Arial" font-size="10.00" fill="#ffffff">stack::Stack::~Stack()</text>
<text text-anchor="middle" x="837" y="-121" font-family="Arial" font-size="10.00" fill="#ffffff">0.00%</text>
<text text-anchor="middle" x="837" y="-110" font-family="Arial" font-size="10.00" fill="#ffffff">(0.00%)</text>
<text text-anchor="middle" x="837" y="-99" font-family="Arial" font-size="10.00" fill="#ffffff">1×</text>
</g>
<!-- 3&#45;&gt;24 -->
<g id="edge15" class="edge">
<title>3&#45;&gt;24</title>
<path fill="none" stroke="#0d0d73" stroke-width="0.5" d="M515.19,-184.93C516.8,-184.6 518.41,-184.29 520,-184 586.15,-172 604.81,-186.77 671,-175 718.07,-166.63 728.85,-159.72 774,-144 774.39,-143.86 774.78,-143.73 775.17,-143.59"/>
<polygon fill="#0d0d73" stroke="#0d0d73" stroke-width="0.5" points="775.83,-144.66 778.72,-142.33 775.01,-142.35 775.83,-144.66"/>
<text text-anchor="middle" x="763" y="-167" font-family="Arial" font-size="10.00" fill="#0d0d73">0.00%</text>
<text text-anchor="middle" x="763" y="-156" font-family="Arial" font-size="10.00" fill="#0d0d73">1×</text>
</g>
<!-- 17&#45;&gt;17 -->
<g id="edge17" class="edge">
<title>17&#45;&gt;17</title>
<path fill="none" stroke="#0d0d73" stroke-width="0.5" d="M723.56,-215.82C729.16,-214.41 732.5,-212.47 732.5,-210 732.5,-208.15 730.62,-206.59 727.32,-205.34"/>
<polygon fill="#0d0d73" stroke="#0d0d73" stroke-width="0.5" points="727.27,-204.04 723.56,-204.18 726.54,-206.38 727.27,-204.04"/>
<text text-anchor="middle" x="749" y="-207.5" font-family="Arial" font-size="10.00" fill="#0d0d73">38228×</text>
</g>
<!-- 18&#45;&gt;18 -->
<g id="edge18" class="edge">
<title>18&#45;&gt;18</title>
<path fill="none" stroke="#0d0d73" stroke-width="0.5" d="M968.56,-215.97C974.15,-214.55 977.5,-212.56 977.5,-210 977.5,-208.08 975.61,-206.48 972.31,-205.2"/>
<polygon fill="#0d0d73" stroke="#0d0d73" stroke-width="0.5" points="972.26,-203.9 968.56,-204.03 971.53,-206.24 972.26,-203.9"/>
<text text-anchor="middle" x="994" y="-207.5" font-family="Arial" font-size="10.00" fill="#0d0d73">99998×</text>
</g>
<!-- 19&#45;&gt;19 -->
<g id="edge19" class="edge">
<title>19&#45;&gt;19</title>
<path fill="none" stroke="#0d0d73" stroke-width="0.5" d="M1231.24,-215.74C1236.74,-214.34 1240,-212.43 1240,-210 1240,-208.18 1238.16,-206.65 1234.93,-205.41"/>
<polygon fill="#0d0d73" stroke="#0d0d73" stroke-width="0.5" points="1234.95,-204.13 1231.24,-204.26 1234.22,-206.47 1234.95,-204.13"/>
<text text-anchor="middle" x="1256.5" y="-207.5" font-family="Arial" font-size="10.00" fill="#0d0d73">99999×</text>
</g>
<!-- 20&#45;&gt;20 -->
<g id="edge20" class="edge">
<title>20&#45;&gt;20</title>
<path fill="none" stroke="#0d0d73" stroke-width="0.5" d="M1470.53,-216.05C1476.13,-214.62 1479.5,-212.61 1479.5,-210 1479.5,-208.05 1477.6,-206.42 1474.3,-205.13"/>
<polygon fill="#0d0d73" stroke="#0d0d73" stroke-width="0.5" points="1474.24,-203.83 1470.53,-203.95 1473.51,-206.17 1474.24,-203.83"/>
<text text-anchor="middle" x="1496" y="-207.5" font-family="Arial" font-size="10.00" fill="#0d0d73">38912×</text>
</g>
<!-- 21&#45;&gt;21 -->
<g id="edge22" class="edge">
<title>21&#45;&gt;21</title>
<path fill="none" stroke="#0d0d73" stroke-width="0.5" d="M1767.72,-215.42C1773.26,-214.05 1776.5,-212.25 1776.5,-210 1776.5,-208.32 1774.68,-206.88 1771.43,-205.69"/>
<polygon fill="#0d0d73" stroke="#0d0d73" stroke-width="0.5" points="1771.43,-204.41 1767.72,-204.58 1770.72,-206.75 1771.43,-204.41"/>
<text text-anchor="middle" x="1793" y="-207.5" font-family="Arial" font-size="10.00" fill="#0d0d73">99998×</text>
</g>
<!-- 10 -->
<g id="node17" class="node">
<title>10</title>
<polygon fill="#0d0d73" stroke="#0d0d73" points="1838.5,-144 1749.5,-144 1749.5,-92 1838.5,-92 1838.5,-144"/>
<text text-anchor="middle" x="1794" y="-132" font-family="Arial" font-size="10.00" fill="#ffffff">char_index(char)</text>
<text text-anchor="middle" x="1794" y="-121" font-family="Arial" font-size="10.00" fill="#ffffff">0.00%</text>
<text text-anchor="middle" x="1794" y="-110" font-family="Arial" font-size="10.00" fill="#ffffff">(0.00%)</text>
<text text-anchor="middle" x="1794" y="-99" font-family="Arial" font-size="10.00" fill="#ffffff">349998×</text>
</g>
<!-- 21&#45;&gt;10 -->
<g id="edge21" class="edge">
<title>21&#45;&gt;10</title>
<path fill="none" stroke="#0d0d73" stroke-width="0.5" d="M1689.39,-183.93C1708.32,-172.18 1730.92,-158.16 1750.25,-146.15"/>
<polygon fill="#0d0d73" stroke="#0d0d73" stroke-width="0.5" points="1751.25,-146.98 1753.57,-144.09 1749.96,-144.9 1751.25,-146.98"/>
<text text-anchor="middle" x="1758" y="-167" font-family="Arial" font-size="10.00" fill="#0d0d73">0.00%</text>
<text text-anchor="middle" x="1758" y="-156" font-family="Arial" font-size="10.00" fill="#0d0d73">199999×</text>
</g>
<!-- 22&#45;&gt;22 -->
<g id="edge24" class="edge">
<title>22&#45;&gt;22</title>
<path fill="none" stroke="#0d0d73" stroke-width="0.5" d="M2050.57,-215.58C2056.19,-214.2 2059.5,-212.34 2059.5,-210 2059.5,-208.25 2057.64,-206.76 2054.33,-205.54"/>
<polygon fill="#0d0d73" stroke="#0d0d73" stroke-width="0.5" points="2054.27,-204.25 2050.57,-204.42 2053.57,-206.59 2054.27,-204.25"/>
<text text-anchor="middle" x="2076" y="-207.5" font-family="Arial" font-size="10.00" fill="#0d0d73">49999×</text>
</g>
<!-- 22&#45;&gt;10 -->
<g id="edge23" class="edge">
<title>22&#45;&gt;10</title>
<path fill="none" stroke="#0d0d73" stroke-width="0.5" d="M1898.61,-183.93C1879.68,-172.18 1857.08,-158.16 1837.75,-146.15"/>
<polygon fill="#0d0d73" stroke="#0d0d73" stroke-width="0.5" points="1838.04,-144.9 1834.43,-144.09 1836.75,-146.98 1838.04,-144.9"/>
<text text-anchor="middle" x="1903" y="-167" font-family="Arial" font-size="10.00" fill="#0d0d73">0.00%</text>
<text text-anchor="middle" x="1903" y="-156" font-family="Arial" font-size="10.00" fill="#0d0d73">149999×</text>
</g>
<!-- 13 -->
<g id="node18" class="node">
<title>13</title>
<polygon fill="#0d0d73" stroke="#0d0d73" points="556.5,-52 443.5,-52 443.5,0 556.5,0 556.5,-52"/>
<text text-anchor="middle" x="500" y="-40" font-family="Arial" font-size="10.00" fill="#ffffff">list::Node::Node(char)</text>
<text text-anchor="middle" x="500" y="-29" font-family="Arial" font-size="10.00" fill="#ffffff">0.00%</text>
<text text-anchor="middle" x="500" y="-18" font-family="Arial" font-size="10.00" fill="#ffffff">(0.00%)</text>
<text text-anchor="middle" x="500" y="-7" font-family="Arial" font-size="10.00" fill="#ffffff">49999×</text>
</g>
<!-- 15&#45;&gt;13 -->
<g id="edge16" class="edge">
<title>15&#45;&gt;13</title>
<path fill="none" stroke="#0d0d73" stroke-width="0.5" d="M500,-91.93C500,-80.71 500,-67.42 500,-55.8"/>
<polygon fill="#0d0d73" stroke="#0d0d73" stroke-width="0.5" points="501.23,-55.75 500,-52.25 498.78,-55.75 501.23,-55.75"/>
<text text-anchor="middle" x="516.5" y="-75" font-family="Arial" font-size="10.00" fill="#0d0d73">0.00%</text>
<text text-anchor="middle" x="516.5" y="-64" font-family="Arial" font-size="10.00" fill="#0d0d73">49999×</text>
</g>
</g>
</svg>
